Coordinates
version=1
nRows=8
nColumns=46
inDegrees=yes

Units are S.I. units (second, meters, Newtons, ...)
Angles are in degrees.

endheader
time	pelvis_tilt	pelvis_list	pelvis_rotation	pelvis_tx	pelvis_ty	pelvis_tz	bb_angle	bb_tx	bb_ty	bb_tz	hip_flexion_r	hip_adduction_r	hip_rotation_r	knee_angle_r	knee_angle_r_beta	ankle_angle_r	subtalar_angle_r	mtp_angle_r	crank_angle_r	hip_flexion_l	hip_adduction_l	hip_rotation_l	knee_angle_l	knee_angle_l_beta	ankle_angle_l	subtalar_angle_l	mtp_angle_l	crank_angle_l	lumbar_extension	lumbar_bending	lumbar_rotation	arm_flex_r	arm_add_r	arm_rot_r	elbow_flex_r	pro_sup_r	wrist_flex_r	wrist_dev_r	arm_flex_l	arm_add_l	arm_rot_l	elbow_flex_l	pro_sup_l	wrist_flex_l	wrist_dev_l
      7.50500000	    -10.66085945	     -2.08509757	      0.47784489	      0.15367626	      1.07215468	     -0.25920154	      0.00000000	      0.50000000	      0.00000000	      0.25000000	     64.50709598	     -3.84122509	      0.81331590	    107.37900731	      1.87411723	      0.46086014	    -14.96598334	      0.00000000	      0.00000000	     61.31741000	     -3.89092245	      2.46165500	     64.36525688	      1.12338566	      5.82666236	    -11.78148059	      0.00000000	      0.00000000	    -62.07492864	      1.42413034	      0.84328105	     81.21745466	    -12.86877917	     30.97525146	     47.35719561	     45.33446472	      0.00000000	      0.00000000	     82.54447892	    -12.95043350	     39.94353106	     47.38816405	     44.22365731	      0.00000000	      0.00000000
      7.51000000	    -10.79176379	     -2.37152713	      0.47230963	      0.15348468	      1.07249606	     -0.25926987	      0.00000000	      0.50000000	      0.00000000	      0.25000000	     65.33904948	     -3.59310032	      0.74976897	    108.42276264	      1.89233419	      1.32499678	    -14.99602630	      0.00000000	      0.00000000	     60.26278257	     -4.20569260	      2.40592278	     62.68624439	      1.09408136	      5.54525607	    -11.53054214	      0.00000000	      0.00000000	    -61.97368573	      1.69454702	      1.14732134	     81.32268484	    -12.81796989	     31.00943422	     47.30973764	     45.33527759	      0.00000000	      0.00000000	     82.52924044	    -12.89209529	     39.97355376	     47.27742254	     44.21229076	      0.00000000	      0.00000000
      7.51500000	    -10.57112324	     -2.22372515	      0.53192209	      0.15337979	      1.07343049	     -0.25960034	      0.00000000	      0.50000000	      0.00000000	      0.25000000	     65.83042013	     -3.78559372	      1.07337731	    109.57122620	      1.91237866	      3.10977386	    -13.64462634	      0.00000000	      0.00000000	     58.73153853	     -4.15593784	      1.98423559	     60.94948073	      1.06376912	      4.99609834	    -11.70725053	      0.00000000	      0.00000000	    -62.23204363	      1.59064731	      1.00851439	     81.53513262	    -12.88487359	     31.12838773	     46.90061337	     45.31990977	      0.00000000	      0.00000000	     82.81463919	    -12.45666924	     40.05782053	     46.58034474	     44.12259683	      0.00000000	      0.00000000
      7.52000000	    -10.72462357	     -2.57674000	      0.55098469	      0.15315666	      1.07361353	     -0.25970837	      0.00000000	      0.50000000	      0.00000000	      0.25000000	     66.69800122	     -3.56113762	      0.88413030	    110.57979080	      1.92998144	      3.86384705	    -13.80443031	      0.00000000	      0.00000000	     57.79327949	     -4.49623465	      1.98343356	     59.45039634	      1.03760516	      4.71087566	    -11.42963259	      0.00000000	      0.00000000	    -62.10182690	      1.93347266	      1.35471389	     81.62118301	    -12.80344642	     31.16898306	     46.87699552	     45.32603105	      0.00000000	      0.00000000	     82.80703901	    -12.45245177	     40.07169459	     46.46308434	     44.10897895	      0.00000000	      0.00000000
      7.52500000	    -10.61422942	     -2.58117617	      0.63884734	      0.15299049	      1.07440499	     -0.26008779	      0.00000000	      0.50000000	      0.00000000	      0.25000000	     67.25739102	     -3.68983591	      1.04135963	    111.60478584	      1.94787097	      5.50426900	    -12.87697042	      0.00000000	      0.00000000	     56.45011829	     -4.52167755	      1.70243423	     57.80355072	      1.00886228	      4.14822567	    -11.42537949	      0.00000000	      0.00000000	    -62.25021005	      2.01882532	      1.34422467	     81.81696145	    -12.80546423	     31.29799528	     46.54320056	     45.33043609	      0.00000000	      0.00000000	     83.00866133	    -12.13223196	     40.12360057	     45.81909388	     44.03044743	      0.00000000	      0.00000000
      7.53000000	    -10.76886308	     -2.90254016	      0.65264196	      0.15280926	      1.07465079	     -0.26021718	      0.00000000	      0.50000000	      0.00000000	      0.25000000	     68.11134631	     -3.54235391	      0.83731334	    112.50868278	      1.96364695	      6.38039547	    -13.00717006	      0.00000000	      0.00000000	     55.51716782	     -4.83405185	      1.69606676	     56.35742293	      0.98362259	      3.84087149	    -11.11643335	      0.00000000	      0.00000000	    -62.11196049	      2.30876967	      1.65179921	     81.88687697	    -12.74993023	     31.33104524	     46.50917308	     45.33495568	      0.00000000	      0.00000000	     82.98878036	    -12.12983014	     40.13284332	     45.73086828	     44.02172887	      0.00000000	      0.00000000
      7.53500000	    -10.66191300	     -2.90779287	      0.74189115	      0.15275261	      1.07545008	     -0.26055134	      0.00000000	      0.50000000	      0.00000000	      0.25000000	     68.67019797	     -3.70086133	      0.98585934	    113.45264585	      1.98012222	      7.99718392	    -12.04330995	      0.00000000	      0.00000000	     54.17665834	     -4.84489203	      1.47216200	     54.77649916	      0.95603026	      3.36349191	    -11.00366379	      0.00000000	      0.00000000	    -62.25675666	      2.37358437	      1.59796418	     82.02918119	    -12.77345689	     31.41241342	     46.24402645	     45.33326760	      0.00000000	      0.00000000	     83.08349837	    -11.89397361	     40.14047078	     45.38760702	     43.98304130	      0.00000000	      0.00000000
      7.54000000	    -10.69090458	     -3.05476690	      0.84282667	      0.15256102	      1.07584996	     -0.26086139	      0.00000000	      0.50000000	      0.00000000	      0.25000000	     69.37851590	     -3.71332277	      1.03664347	    114.34214157	      1.99564684	      9.23044589	    -11.53566105	      0.00000000	      0.00000000	     53.11491750	     -4.96996005	      1.35135639	     53.38192769	      0.93169040	      2.97735061	    -10.78927471	      0.00000000	      0.00000000	    -62.24448573	      2.63765710	      1.73420824	     82.16594801	    -12.68724734	     31.52411656	     46.01013528	     45.34176642	      0.00000000	      0.00000000	     83.16171732	    -11.79192912	     40.11544042	     45.08507921	     43.94976637	      0.00000000	      0.00000000
